<?xml version="1.0" encoding="utf-8"?>
<!-- Generator: Adobe Illustrator 19.0.0, SVG Export Plug-In . SVG Version: 6.00 Build 0)  -->
<svg version="1.1" id="Capa_1" xmlns="http://www.w3.org/2000/svg" xmlns:xlink="http://www.w3.org/1999/xlink" x="0px" y="0px"
	 viewBox="-89 134.7 415.9 572.2" style="enable-background:new -89 134.7 415.9 572.2;" xml:space="preserve">
<style type="text/css">
	.st0{fill:#FFFFFF;}
</style>
<path id="XMLID_24_" class="st0" d="M-70.9,578.6c3.9-10.5,7.3-20,10.8-29.5c23.4-63.9,46.8-127.7,70.2-191.6
	C36.8,284.8,63.6,212,90.2,139.3c1.2-3.4,2.7-4.6,6.3-4.6c15,0.2,30,0.2,45,0c3.4,0,4.9,0.9,6.1,4.1c24,65.8,48.1,131.5,72.3,197.2
	c29,79,58,158,86.9,237c0.6,1.5,1,3.1,1.6,5.2c-2.1,0.1-3.7,0.3-5.3,0.3c-20.3,0-40.7-0.1-61,0.1c-4,0-5.5-1.4-6.7-4.9
	c-12-35.8-24.2-71.5-36.3-107.2c-25.7-75.9-51.5-151.7-77.3-227.6c-0.3-0.9-0.8-1.8-1.6-3.4c-3.2,8.9-6.2,17.1-9.1,25.4
	C91.7,316.1,72.2,371.3,53,426.5C36.1,475,19.4,523.6,2.8,572.2c-1.6,4.6-3.6,6.4-8.7,6.3c-19.5-0.4-39-0.1-58.5-0.1
	C-66.1,578.6-67.9,578.6-70.9,578.6z"/>
<path id="XMLID_23_" class="st0" d="M247.2,706.7c-17.2,0-30.9-4.9-42.8-14.7c-8.7-7.1-18.1-11.7-29.4-8.2
	c-4.8,1.5-9.5,4.2-13.4,7.3c-18.7,14.8-39.6,19.8-62.3,12.4c-8.5-2.8-16.4-8.1-23.8-13.3c-14.2-10-26-10.6-39.6,0.2
	c-19,15.1-39.9,20.4-63.1,13.1c-7.6-2.4-14.7-7-21.3-11.5c-7.4-5.1-14.6-9.4-24.1-9.5c-9.4-0.1-16.6-8.9-16.3-18.1
	c0.3-9.7,7.9-17.4,17.6-17.6c15-0.3,28.4,4.5,40.4,13.6c4,3,8,6.3,12.5,8.2c11,4.5,21.2,2.2,30.3-5.2c8.1-6.6,16.8-12.1,27.1-14.5
	c20.4-4.8,39.3-1.5,56.3,11.3c2.1,1.6,4.2,3.2,6.4,4.8c11.2,8,23.7,8.1,34.7,0c9.1-6.7,18.2-13.5,29.6-16.1
	c21.7-5,41.3-0.7,58.5,13.4c8.3,6.8,17.4,10.6,28.2,7.6c4.2-1.2,8.3-3.4,11.8-6.1c10.9-8.2,22.3-15.1,36.3-16.5c3-0.3,6-0.5,9-0.4
	c10,0.5,17.5,8.5,17.3,18.3c-0.2,9.6-7.7,17.4-17.6,17.5c-7.7,0.1-14.2,2.8-20.1,7.6C276.5,700.7,262.2,707,247.2,706.7z"/>
</svg>
